<svg width="1500" height="1500" viewBox="0 0 1500 1500" fill="none" xmlns="http://www.w3.org/2000/svg">
<path fill-rule="evenodd" clip-rule="evenodd" d="M512.041 292.972C509.507 293.606 505.223 295.252 502.518 296.631C499.814 298.011 493.08 300.799 487.551 302.826C482.023 304.855 473.096 308.126 467.713 310.097C462.33 312.068 456.394 313.69 454.522 313.704C444.124 313.778 434.657 326.238 431.731 343.701C430.942 348.411 429.237 355.377 427.943 359.182C426.648 362.987 425.02 369.593 424.324 373.863C423.628 378.132 422.278 384.176 421.325 387.293C419.682 392.666 419.535 398.044 419.518 453.195C419.517 456.896 419.39 464.185 419.236 469.393C418.915 480.243 419.091 480.627 423.609 478.909C425.444 478.212 435.568 476.814 446.105 475.802C456.643 474.791 468.282 473.142 471.968 472.14C494.061 466.127 514.555 489.534 505.189 510.083C499.763 521.982 491.84 527.332 477.122 529.032C471.947 529.629 462.758 530.671 456.702 531.346C450.646 532.022 443.214 532.868 440.186 533.228C431.681 534.238 417.95 537.12 413.912 538.743C411.909 539.548 406.523 540.994 401.943 541.958C388.28 544.832 379.867 550.766 369.067 566.6C364.067 573.931 362.019 590.912 364.4 600.2C365.674 605.171 364.462 611.808 363.113 618.964C360.968 630.331 362.814 626.893 390.639 626.917C408.086 626.93 417.533 626.751 421.8 628.2C427.305 630.069 424.446 628.219 428.097 625.147C430.14 623.429 432.311 622.023 432.923 622.023C433.536 622.023 437.625 618.979 442.01 615.259C452.303 606.527 475.436 591.883 484.84 588.146C488.877 586.541 502.885 579.882 515.968 573.347L539.756 561.465H553.282C567.817 561.465 576.432 564.406 585.459 572.45C587.313 574.1 591.981 577.967 595.835 581.042C599.687 584.117 604.456 588.952 606.432 591.788C608.406 594.624 612.888 599.696 616.389 603.06C622.956 609.371 628.52 619.106 628.624 624.47C628.679 627.243 628.855 627.134 630.52 623.297C634.597 613.897 651.336 596.667 674.693 577.829C677.51 575.557 684.005 570.266 689.126 566.07C713.781 545.873 731.204 549.569 763.205 581.783C773.103 591.748 783.28 600.853 786.159 602.323C796.262 607.477 802.491 619.975 800.297 630.688C798.808 637.953 799.253 639.15 806.592 639.15C812.104 639.15 812.105 637.67 814.056 633.558C816.236 628.962 827.976 617.877 834.015 614.711C838.415 612.403 846.984 600.957 856.93 584.098C861.098 577.033 866.066 569.112 867.971 566.497C872.319 560.523 872.862 559.544 881.081 542.873C888.96 526.891 893.293 514.654 895.247 502.867C896.016 498.227 897.638 492.446 898.851 490.021C902.725 482.279 902.921 476.721 899.651 467.264C891.236 442.927 888.095 431.045 886.781 418.586C884.883 400.606 885.398 401.417 876.453 402.313C858.443 404.116 834.86 405.476 821.579 405.48C813.673 405.481 807.204 405.954 807.204 406.529C807.204 407.105 804.011 411.095 800.108 415.398C796.204 419.701 790.341 426.8 787.075 431.174C783.81 435.547 778.542 441.878 775.369 445.243C761.799 459.627 752.768 476.333 749.131 493.78C747.445 501.861 743.435 509.714 739.193 513.234C737.965 514.254 733.838 514.101 723.131 512.642C715.205 511.562 697.986 509.259 684.865 507.524C671.744 505.79 656.88 503.634 651.833 502.734C646.787 501.833 632.473 500.468 620.025 499.701C588.633 497.765 583.312 495.748 577.004 483.383C570.595 470.819 579.334 445.854 590.142 445.854C592.204 445.854 596.723 428.86 598.731 413.556C599.709 406.088 601.045 398.05 601.697 395.695C603.367 389.668 603.09 377.573 601.158 372.16C598.143 363.716 583 340.051 577.905 335.821C576.738 334.852 574.18 330.882 572.218 326.999C568.001 318.645 561.976 312.292 554.846 308.682C552.006 307.242 547.545 304.148 544.936 301.806C536.18 293.946 522.664 290.316 512.041 292.972ZM1273.32 992.159C1265.58 994.441 1256.95 996.655 1254.14 997.079C1251 997.555 1247.94 999.028 1246.19 1000.91C1241.75 1005.67 1225.94 1012.7 1203.79 1019.76L1194.83 1022.62L1195.52 1029.99C1195.9 1034.05 1196.77 1050.58 1197.45 1066.73C1198.13 1082.87 1199.59 1101.59 1200.68 1108.32C1202.48 1119.36 1203.91 1166.33 1204.08 1219.65C1204.12 1231.85 1201.93 1254.23 1200.11 1260.19C1199.09 1263.55 1200.49 1321.56 1201.62 1322.7C1201.82 1322.9 1205.08 1321.65 1208.86 1319.92C1212.64 1318.19 1217.81 1316.45 1220.36 1316.05C1222.91 1315.65 1229.67 1312.97 1235.39 1310.08C1245.5 1304.99 1260.48 1298.29 1272.48 1293.51C1289.5 1286.74 1295.16 1282.96 1296.58 1277.47C1297.32 1274.6 1298.44 1270.6 1299.07 1268.59C1299.7 1266.57 1301.28 1259.14 1302.57 1252.07C1303.88 1245 1305.53 1237.67 1306.26 1235.78C1313.89 1215.82 1321.74 1090.78 1316.18 1077.74C1315.28 1075.62 1314.22 1065.25 1313.67 1053.25L1312.73 1032.43L1308.32 1024.41C1305.75 1019.72 1303.62 1013.88 1303.2 1010.36C1300.5 987.44 1296.85 985.221 1273.32 992.159Z" fill="#78603F"/>
<path fill-rule="evenodd" clip-rule="evenodd" d="M580.933 125.6C576.14 128.365 568.763 135.281 565.533 141C561.188 148.693 552.903 158.091 547.333 161.533C545.016 162.966 541.039 167.186 539.4 169.933C537.762 172.681 532.335 178.695 527.733 183.467C523.131 188.239 517.902 194.748 516.067 197.467C514.232 200.184 510.083 205.375 506.733 209.133C500.103 216.572 488.33 234.933 488.33 237.834C488.33 238.827 484.459 245.352 483.4 247.4C479.979 254.015 495.082 248.166 517.467 235.267C544.91 219.453 558.164 224.92 574.4 256.733C576.289 260.434 579.929 264.738 581.4 266.067C582.871 267.395 586.285 271.857 588.561 275.911C590.838 279.965 595.175 286.036 598.2 289.4L604.733 296.867L604.082 288.649C604.121 285.284 604.312 278.71 603.333 274C601.002 262.768 599.6 246.386 599.6 238.533C599.6 235.085 597.404 224.8 595.4 216.133C591.692 200.086 590.647 188.135 592.133 176C592.915 169.627 593.205 165.254 589.8 143.333C587.699 129.816 586.855 129.272 585.133 127C583.993 125.493 582.382 124.766 580.933 125.6ZM964.067 276.8C961.044 278.395 954.005 282.37 952.4 282.867C950.794 283.365 946.17 286.087 943.067 288.467C937.498 292.734 922.37 301.067 919.733 301.067C918.987 301.067 912.688 304.045 910.4 305.733C908.112 307.42 903.939 308.914 899.2 310.4C894.461 311.886 888.238 314.633 886.133 316C877.237 321.779 864.035 332.713 857.2 339.8L847.4 349.6L860 349.133C926.505 342.559 929.923 345.375 937.933 386.933L940.913 389.846L945.4 383.2C946.956 379.595 948.64 375.371 948.667 373.4C948.714 369.934 949.039 365.52 956.6 340.733C958.55 334.341 960.761 324.65 961.733 319.267C962.705 313.884 965.151 303.98 966.867 297.333C972.012 277.391 972.919 272.128 964.067 276.8ZM707.498 622.635C692.15 634.722 684.678 637.315 707.498 637.315L738.082 635.48L728.295 624.47C723.725 619.423 720.083 614.016 719.731 614.071C719.382 614.126 712.395 618.777 707.498 622.635ZM539.281 623.246L525.212 630.587L547.233 632.422C565.481 632.317 573.961 626.243 564.133 620.267C559.075 617.19 550.502 617.829 539.281 623.246ZM1127.73 1052.09C1121.34 1055 1110.61 1060.46 1103.88 1064.22C1097.15 1067.99 1086.96 1072.52 1081.24 1074.28C1064.58 1079.44 1047.7 1090.49 1036.53 1103.56C1031.52 1109.43 1019.32 1118.72 1016.63 1118.72C1016.11 1118.72 1013.6 1121.46 1011.04 1124.8C1008.49 1128.15 1004.56 1132.51 1002.3 1134.49C1000.04 1136.48 996.177 1140.9 993.72 1144.32C991.262 1147.74 988.613 1150.95 987.834 1151.45C984.403 1153.66 971.983 1171.88 969.806 1177.9C968.864 1180.5 966.922 1183.55 965.487 1184.68C961.997 1187.42 958.512 1194.49 955.176 1205.6C953.661 1210.63 951.128 1217.72 949.544 1221.34C943.599 1234.93 934.437 1264.48 934.437 1270.06C934.437 1281.31 941.552 1279.06 962.15 1261.29C998.546 1229.89 1007.6 1233.46 1000.37 1276.39C999.063 1284.16 996.381 1291.2 996.699 1292.03C997.303 1293.6 993.412 1320.03 991.325 1328.53C990.664 1331.22 993.176 1338.92 993.16 1339.54C993.144 1340.17 998.547 1333.87 1004.17 1328.53C1031.35 1302.75 1055.59 1295.07 1059.22 1308.35C1061.24 1315.7 1056.87 1353.42 1054.18 1360.03C1053.43 1361.87 1053.08 1364.38 1053.39 1365.59C1053.71 1366.81 1053.28 1372.18 1052.44 1377.53C1050.43 1390.25 1050.84 1390.69 1062.02 1387.66C1066.87 1386.34 1072.97 1384.73 1075.56 1384.08C1080.11 1382.94 1092.01 1378.37 1100.82 1373.8C1103.17 1372.58 1113.31 1368.21 1122.84 1364.01L1141.61 1356.02L1142.41 1348.11C1146.06 1327.23 1147.39 1322.15 1146.08 1292.44C1144.99 1267.39 1143.98 1262.75 1145.47 1254.52C1148.82 1236.06 1148.82 1219.45 1147.9 1211.53C1147.4 1207.25 1146.87 1185.58 1146.72 1163.37C1146.51 1132.81 1145.97 1120.33 1144.49 1111.99C1143.38 1105.72 1142.19 1089.52 1141.73 1074.36C1140.78 1043.18 1142.23 1045.49 1127.73 1052.09Z" fill="#B1936A"/>
<path fill-rule="evenodd" clip-rule="evenodd" d="M190.333 672.067C185.834 674.316 184.651 691.28 184.152 724.333C184.069 729.856 184.625 734.855 184.152 735.327C183.681 735.8 183.903 736.917 184.645 737.811C185.387 738.705 185.664 740.299 185.26 741.351C184.809 742.525 183.849 748.625 184.645 748.133C185.557 747.569 185.023 756.428 184.645 791.5C184.349 818.99 185.434 845.117 186 850.5C186.566 855.883 184.105 875.823 184.5 895C185.328 935.182 185.113 966.294 187.076 991.561C187.834 1001.32 190.445 1013.14 190 1015.5C189.555 1017.86 188.996 1028.28 188.875 1034C188.754 1039.72 187.939 1053.76 187.064 1065.2C186.189 1076.64 188.115 1098.8 188 1120C187.851 1147.41 188.048 1159.1 187 1161C186.14 1162.56 184.89 1168.24 185 1174L185.593 1184.07L201 1184C209.14 1183.95 216.802 1184.35 218.5 1185C220.198 1185.65 230.231 1187.71 240.5 1189.5C250.769 1191.29 259.683 1192.72 260.5 1193C264.899 1194.51 293.28 1196.96 306 1197C317.026 1197.03 324.555 1198.04 336.5 1200.5C363.723 1206.11 387.013 1206.69 567.5 1207C612.545 1207.08 637.63 1207.58 642.5 1208.5C646.537 1209.26 657.934 1210.59 668 1210.5C682.649 1210.37 687.859 1210.55 695.5 1212.5C704.482 1214.79 707.227 1215.43 726.5 1214C752.539 1212.08 778.453 1211.99 819 1214C842.909 1215.19 852.993 1215.51 857 1214.5C868.575 1211.59 876.735 1213.56 884.5 1221L890.379 1224.72L893.513 1214.23C895.236 1208.47 898.543 1197.96 900.861 1190.9C903.179 1183.83 905.5 1176.4 905.5 1174C905.5 1166.16 908.819 1157.87 914.334 1151.94C917.214 1148.84 922.136 1142.4 925.5 1137.5C928.864 1132.6 936.117 1123.2 941.5 1117C946.883 1110.8 955.997 1099.21 962 1091C974.862 1073.42 982.048 1068.77 1001 1057.5C1008.74 1052.9 1018.87 1046.15 1023 1043C1032.06 1036.1 1046.65 1028.16 1054.93 1025.4C1058.27 1024.28 1064.6 1020.73 1069 1017.5C1084.07 1006.45 1114.03 991.631 1136 986C1142.45 984.346 1146.24 982.236 1148 980C1151.63 975.385 1158.32 972.5 1165 972.5C1168.2 972.5 1173.67 971.579 1176.5 970.5L1181.53 969.5L1182 962.5C1181.49 957.364 1181.41 953.652 1184.5 946C1188.91 935.078 1188.89 929.641 1185.5 923C1182.05 916.23 1182.72 907.683 1186.5 900.5C1190.42 893.056 1191.96 874.474 1192 839.5C1192.02 825.032 1193.79 811.199 1194.5 808.5C1195.55 804.529 1196.96 790.717 1196.5 781.5C1196.45 780.491 1196.82 773.402 1197.5 766C1198.37 756.504 1197.5 746.273 1196.5 732C1195.38 715.966 1194.31 710.949 1195.53 706.133C1199.19 691.744 1198.45 681.307 1189 682.8C1186.58 683.182 1182.03 682.363 1181.53 681.867C1181.04 681.371 1174.64 681.548 1168.47 681.4C1162.3 681.252 1153.58 680.773 1148.87 680.467C1144.16 680.162 1133.94 679.497 1127.4 679.067C1119.03 678.517 1111.49 679.968 1101.83 681.389C1090.32 683.083 1082.52 683.273 1053.78 682.564C1025.89 681.875 1015.91 681.359 1000.5 683C986.594 684.48 976.156 685.318 961.351 684.769C946.174 684.206 937.537 684.025 926.5 685.5C918.426 686.579 899.967 688.563 885.5 689.5C871.033 690.437 856.201 691.684 852.5 692.5C844.256 694.318 759.859 693.674 740 691.5C731.795 690.602 722.109 690.377 713.5 691C688.407 692.814 656.359 691.892 633.482 689.126C609.065 686.173 574.386 684.341 506.5 684.5C481.94 684.557 454.714 685.311 446.303 685.306C437.155 685.301 426.953 684.264 420 683C413.337 681.789 397.377 680.013 383 679.5C367.448 678.947 356.155 677.495 353.5 676.5C348.914 674.78 330.611 676.048 248.114 675.455C222.881 675.274 202.152 672.521 200.133 672.067C198.107 671.612 191.831 671.317 190.333 672.067ZM466.915 844.633C464.457 845.97 461.154 848.785 459.575 850.889C457.995 852.995 454.159 857.294 451.051 860.444C447.943 863.594 444.244 868.437 442.831 871.207C441.418 873.976 438.42 877.38 436.168 878.773C433.916 880.165 431.008 882.482 429.707 883.922C428.405 885.362 424.715 887.871 421.508 889.498C418.299 891.125 412.662 895.185 408.981 898.518C405.3 901.852 400.042 905.997 397.298 907.729C394.554 909.462 388.143 915.004 383.053 920.045C377.961 925.087 371.768 930.246 369.29 931.511C366.812 932.774 364.024 934.725 363.095 935.844C362.166 936.963 357.976 940.328 353.782 943.32C334.62 956.994 335.499 984.013 355.353 991.561C356.947 992.166 359.51 995.373 361.369 999.086C366.378 1009.09 370.304 1013.58 376.388 1016.27C383.143 1019.26 401.68 1037.46 409.602 1048.88C413.207 1054.08 417.638 1058.53 422.44 1061.77C426.473 1064.5 433.63 1070.65 438.344 1075.44C451.157 1088.48 470.359 1097 480.657 1094.23C502.948 1088.22 504.161 1060.41 482.629 1049.03C478.054 1046.61 473.014 1042.97 471.431 1040.95C469.846 1038.92 464.197 1034.02 458.874 1030.05C451.411 1024.48 448.696 1021.61 447.01 1017.54C444.898 1012.43 432.718 1000.05 429.803 1000.05C429.071 1000.05 425.74 997.255 422.401 993.836C419.062 990.419 413.027 984.973 408.99 981.735C397.829 972.782 397.194 969.619 405.298 963.367C408.848 960.627 414.544 955.511 417.956 951.999C425.174 944.566 440.508 932.12 449.532 926.371C465.455 916.226 478.321 905.259 481.453 899.159C482.501 897.12 486.056 892.488 489.356 888.867C511.446 864.618 493.87 829.973 466.915 844.633ZM627.04 857.022C624.506 857.619 620.361 859.164 617.828 860.457C615.295 861.749 609.936 863.74 605.919 864.88C601.902 866.019 596.365 868.243 593.612 869.822L588.609 872.691L586.656 868.594C578.295 851.063 548.357 854.3 541.013 873.529C538.349 880.505 539.252 898.609 542.912 911.645C544.574 917.563 545.398 924.162 545.398 931.541C545.398 939.335 546.179 945.186 548.053 951.437C550.534 959.71 550.724 963.099 550.947 1003.11C551.146 1038.5 551.533 1047.16 553.186 1053.02C554.286 1056.92 555.197 1064.08 555.212 1068.93C555.294 1095.66 584.89 1106.47 597.818 1084.48C601.726 1077.83 602.659 1050.11 599.178 1044.09C597.74 1041.61 597.376 1033.25 597.232 999.44C597.093 966.706 596.648 956.02 595.144 949.28L593.233 940.717L597.132 931.116C602.001 919.124 611.308 911.222 624.775 907.646C629.227 906.464 634.475 904.69 636.434 903.704C640.596 901.61 658.052 903.26 665.746 906.475C668.143 907.477 671.362 908.314 672.898 908.336C678.17 908.409 687.562 920.247 689.057 928.705C694.131 957.395 703.503 970.585 718.875 970.663C738.526 970.763 748.096 945.326 736.253 924.474C735.594 923.314 733.938 917.686 732.572 911.967C730.929 905.09 728.843 899.91 726.415 896.675C724.396 893.983 720.884 888.968 718.611 885.531C716.338 882.094 712.632 878.001 710.376 876.436C708.12 874.871 704.322 871.869 701.936 869.764C699.55 867.658 695.146 865.326 692.149 864.583C659.164 856.39 639.445 854.099 627.04 857.022ZM790.688 859.162C762.624 872.571 782.016 909.492 828.448 931.052C831.903 932.657 836.766 936.314 839.256 939.178C841.744 942.043 845.836 946.768 848.349 949.677C850.862 952.586 855.266 956.164 858.138 957.629C863.587 960.408 868.957 966.936 878.371 982.223C881.95 988.033 883.1 990.861 882.03 991.217C881.173 991.503 878.162 993.587 875.34 995.846C860.385 1007.82 853.018 1012.77 840.236 1019.44C832.498 1023.47 822.863 1029.32 818.826 1032.43C809.77 1039.42 785.714 1054.25 780.485 1056.08C760.91 1062.9 755.261 1090.2 770.949 1102.16C779.873 1108.97 792.367 1108.29 801.315 1100.51C807.959 1094.73 814.677 1090.17 828.613 1081.96C834.669 1078.4 842.101 1073.43 845.129 1070.93C848.157 1068.42 857.117 1063 865.04 1058.87C878.336 1051.95 888.662 1045.09 898.646 1036.56C900.829 1034.7 910.738 1029.04 920.668 1023.99C951.934 1008.1 954.061 996.914 930.685 971.302C923.929 963.9 916.551 955.014 914.288 951.556C912.024 948.097 909.565 944.893 908.824 944.436C908.083 943.977 906.071 940.831 904.355 937.442C900.566 929.966 891.619 920.994 886.923 919.963C884.596 919.452 880.203 915.461 873.344 907.629C864.275 897.269 862.149 895.547 853.163 891.278C840.106 885.074 830.971 878.595 823.031 869.909C812.399 858.275 800.687 854.383 790.688 859.162Z" fill="#2A293D"/>
<path fill-rule="evenodd" clip-rule="evenodd" d="M148.333 615.752C134.369 624.268 131.084 635.738 135.525 660.481C136.692 666.99 136.725 670.981 135.667 677.609C134.908 682.362 134.058 688.615 133.778 691.503C133.499 694.392 132.696 698.52 131.995 700.679C130.341 705.775 130.086 739.023 131.434 773.554C132.06 789.582 132.044 808.831 131.395 820.042C130.63 833.243 130.719 843.347 131.685 852.632C133.185 867.059 133.603 912.871 132.343 924.574C131.917 928.523 132.261 935.854 133.118 941.09C135.042 952.842 135.708 1045.9 134.07 1074.07C133.444 1084.83 132.394 1108.5 131.737 1126.67C129.703 1182.89 128.826 1197.51 127.273 1201.07C118.773 1220.61 135.319 1241.98 156.858 1239.29C161.451 1238.72 164.452 1238.95 166.384 1240.03C169.83 1241.95 189.809 1241.79 198.203 1239.78C203.783 1238.44 224.689 1241.21 245.487 1246.04C256.093 1248.5 268.738 1249.81 291.544 1250.82C308.541 1251.57 319.063 1252.71 330.693 1255.07C353.141 1259.63 379.04 1261.04 446.915 1261.43C637.329 1262.5 675.401 1263.41 692.205 1267.29C701.732 1269.49 711.503 1269.48 738.082 1267.23C751.271 1266.12 762.204 1266.14 826.126 1267.39C874.968 1268.34 876.961 1270.32 878.161 1262.47C878.598 1259.61 880.141 1253.05 881.831 1249.01C883.519 1244.97 885.751 1236.92 887.411 1232.61L890.43 1224.77L885.17 1219.73C877.379 1212.26 868.315 1210.14 856.728 1213.05C852.722 1214.06 843.087 1214 819.179 1212.81C778.632 1210.8 752.205 1210.76 726.167 1212.69C706.893 1214.11 705.125 1214.06 696.143 1211.77C688.502 1209.82 682.948 1209.36 668.299 1209.49C658.233 1209.58 646.695 1209.02 642.658 1208.26C637.787 1207.34 612.464 1206.83 567.419 1206.75C386.932 1206.44 364.033 1205.78 336.81 1200.17C324.864 1197.7 317.251 1196.88 306.225 1196.85C293.505 1196.81 265.096 1194.25 260.696 1192.74C259.879 1192.46 250.809 1190.77 240.54 1188.98C230.271 1187.2 220.48 1185.21 218.782 1184.56C217.084 1183.91 209.034 1183.43 200.893 1183.48L186.093 1183.57L185.905 1173.7C185.795 1167.94 186.331 1162.72 187.191 1161.16C188.24 1159.25 188.725 1147.35 188.875 1119.94C188.99 1098.75 189.798 1072.05 190.673 1060.61C191.548 1049.17 192.363 1035.13 192.484 1029.41C192.605 1023.69 193.068 1017.09 193.514 1014.73C193.959 1012.38 193.702 1002.47 192.945 992.711C192.186 982.954 191.083 965.062 190.491 952.951C189.899 940.839 190.015 929.222 189.867 926.867C188.993 912.916 187.346 838.145 187.067 795.267C186.888 767.679 186.757 745.201 186.133 743C185.509 740.798 184.587 731.345 185.02 724.8C185.452 718.254 185.842 706.559 186.312 698.485C187.54 677.328 191.073 670.47 198.85 674.15C200.039 674.713 221.933 675.313 247.502 675.484C330.191 676.038 348.721 676.523 353.325 678.249C355.98 679.243 367.135 680.193 382.687 680.746C397.064 681.258 412.726 682.54 419.389 683.752C426.341 685.015 437.155 685.867 446.303 685.872C454.714 685.877 481.69 685.833 506.249 685.775C574.136 685.616 609.065 686.673 633.482 689.626C656.359 692.392 688.531 693.031 713.624 691.217C722.233 690.594 731.722 690.749 739.927 691.647C759.787 693.821 844.225 694.888 852.47 693.07C856.17 692.254 871.034 690.819 885.501 689.882C899.968 688.945 918.41 687.296 926.485 686.217C937.522 684.741 946.174 684.44 961.352 685.003C976.163 685.554 986.586 685.215 1000.5 683.732C1015.9 682.093 1025.84 681.871 1053.35 682.559C1082.36 683.283 1089.55 683.09 1103.25 681.22C1117.77 679.24 1121.16 679.188 1139.7 680.667C1150.95 681.565 1166.69 682.444 1174.68 682.62C1195.77 683.085 1199.67 687.532 1195.03 705.811C1193.78 710.7 1193.77 715.85 1194.96 731.738C1195.78 742.642 1196.09 755.036 1195.64 759.279C1195.19 763.523 1194.64 775.253 1194.41 785.346C1194.17 795.439 1193.41 805.899 1192.7 808.59C1191.99 811.282 1191.39 825.291 1191.38 839.722C1191.34 874.696 1189.68 892.454 1185.77 899.898C1181.99 907.081 1181.78 916.207 1185.23 922.977C1188.6 929.578 1188.3 935.077 1184.01 945.805C1180.42 954.758 1179.64 960.012 1181.09 965.407L1181.07 968.867L1194.13 964.667C1208.33 959.727 1210.21 957.973 1215.06 953.934C1220.22 949.64 1227.8 946.35 1236.13 944.133L1243.34 941.876L1246.4 925.933C1246.48 916.813 1245.63 906.805 1246.4 904.479C1247.31 901.727 1246.63 883.143 1247.01 851.36C1247.34 824.472 1248.01 792.289 1248.52 779.841C1249.37 758.742 1249.61 703.967 1249.01 666.228C1248.57 638.289 1240.46 630.095 1213.98 630.841C1208.6 630.993 1198.14 630.457 1190.74 629.65C1153.21 625.556 1113.11 624.086 1098.48 626.266C1086.67 628.024 1079.31 628.215 1050.76 627.505C1023.26 626.82 1013.42 627.044 997.585 628.717C986.897 629.846 976.712 630.403 974.952 629.955C971.312 629.029 941.755 629.149 925.261 630.156C919.206 630.527 908.47 630.757 901.405 630.667C894.34 630.579 883.605 631.335 877.549 632.348C838.755 638.84 807.576 638.632 780.289 634.257C769.872 632.586 726.356 634.122 682.418 636.186C670.424 636.75 661.213 636.405 648.775 634.927C639.355 633.809 626.692 632.354 620.637 631.695C614.581 631.037 569.499 629.672 519.707 629.363C435.26 628.842 427.919 629.218 418.969 627.001C410.758 624.965 406.615 624.72 390.219 625.299C373.663 625.883 370.318 625.678 365.559 623.793C359.329 621.324 334.842 620.593 246.89 620.247C197.303 620.051 192.856 619.766 177.233 615.781C165.283 612.732 153.304 612.72 148.333 615.752ZM466.915 844.633C464.457 845.97 461.154 848.785 459.575 850.889C457.995 852.994 454.159 857.293 451.051 860.444C447.943 863.594 444.244 868.437 442.831 871.207C441.418 873.976 438.42 877.38 436.167 878.773C433.916 880.165 431.008 882.482 429.707 883.922C428.405 885.362 424.715 887.871 421.508 889.498C418.299 891.125 412.662 895.184 408.981 898.518C405.3 901.852 400.042 905.997 397.298 907.729C394.554 909.461 388.143 915.003 383.053 920.045C377.961 925.087 371.768 930.246 369.289 931.511C366.812 932.774 364.024 934.724 363.095 935.844C362.166 936.963 357.976 940.328 353.782 943.32C334.62 956.994 335.499 984.012 355.353 991.561C356.947 992.166 359.51 995.373 361.369 999.086C366.378 1009.09 370.304 1013.58 376.388 1016.27C383.143 1019.26 401.68 1037.46 409.602 1048.88C413.207 1054.08 417.638 1058.53 422.44 1061.77C426.473 1064.5 433.63 1070.65 438.344 1075.44C451.156 1088.48 470.359 1097 480.657 1094.23C502.948 1088.22 504.161 1060.41 482.629 1049.03C478.054 1046.61 473.014 1042.97 471.431 1040.95C469.846 1038.92 464.197 1034.02 458.874 1030.05C451.411 1024.48 448.696 1021.61 447.01 1017.54C444.898 1012.43 432.717 1000.05 429.803 1000.05C429.071 1000.05 425.74 997.254 422.401 993.836C419.062 990.419 413.027 984.973 408.99 981.735C397.829 972.782 397.194 969.619 405.298 963.366C408.848 960.627 414.544 955.511 417.956 951.999C425.174 944.565 440.508 932.12 449.532 926.371C465.455 916.226 478.321 905.259 481.453 899.159C482.501 897.12 486.056 892.488 489.356 888.867C511.446 864.618 493.87 829.973 466.915 844.633ZM627.04 857.022C624.506 857.619 620.361 859.164 617.828 860.457C615.295 861.749 609.936 863.74 605.919 864.88C601.902 866.019 596.365 868.243 593.612 869.822L588.609 872.691L586.656 868.594C578.295 851.063 548.357 854.3 541.013 873.529C538.349 880.505 539.252 898.609 542.912 911.645C544.574 917.563 545.398 924.162 545.398 931.541C545.398 939.335 546.179 945.186 548.053 951.437C550.534 959.71 550.724 963.099 550.947 1003.11C551.146 1038.5 551.533 1047.16 553.186 1053.02C554.286 1056.92 555.197 1064.08 555.212 1068.93C555.294 1095.66 584.89 1106.47 597.818 1084.48C601.726 1077.83 602.659 1050.11 599.178 1044.09C597.74 1041.61 597.376 1033.25 597.232 999.439C597.093 966.706 596.648 956.02 595.144 949.28L593.233 940.717L597.132 931.115C602.001 919.124 611.308 911.222 624.775 907.646C629.227 906.464 634.474 904.69 636.434 903.704C640.596 901.61 658.052 903.26 665.746 906.475C668.143 907.477 671.362 908.314 672.898 908.336C678.17 908.409 687.562 920.247 689.057 928.705C694.131 957.395 703.503 970.585 718.875 970.663C738.526 970.763 748.096 945.326 736.253 924.474C735.594 923.314 733.937 917.686 732.572 911.967C730.929 905.09 728.843 899.91 726.415 896.674C724.396 893.983 720.884 888.968 718.611 885.531C716.338 882.094 712.632 878.001 710.376 876.436C708.12 874.871 704.322 871.869 701.936 869.764C699.55 867.658 695.146 865.326 692.149 864.582C659.164 856.389 639.445 854.099 627.04 857.022ZM790.688 859.162C762.624 872.571 782.016 909.492 828.448 931.052C831.903 932.657 836.766 936.314 839.256 939.178C841.744 942.043 845.836 946.767 848.349 949.677C850.862 952.586 855.266 956.164 858.138 957.629C863.587 960.408 868.957 966.936 878.371 982.223C881.95 988.033 883.1 990.861 882.03 991.217C881.173 991.503 878.162 993.587 875.34 995.846C860.385 1007.82 853.018 1012.77 840.236 1019.44C832.498 1023.47 822.863 1029.32 818.826 1032.43C809.769 1039.42 785.714 1054.25 780.485 1056.08C760.91 1062.9 755.261 1090.2 770.949 1102.16C779.873 1108.97 792.367 1108.29 801.315 1100.51C807.959 1094.73 814.677 1090.17 828.613 1081.96C834.669 1078.4 842.101 1073.43 845.129 1070.93C848.157 1068.42 857.117 1063 865.04 1058.87C878.336 1051.94 888.662 1045.09 898.646 1036.56C900.829 1034.7 910.738 1029.04 920.668 1023.99C951.934 1008.1 954.061 996.914 930.685 971.301C923.929 963.9 916.551 955.014 914.288 951.556C912.024 948.097 909.565 944.893 908.824 944.436C908.083 943.977 906.071 940.83 904.355 937.442C900.566 929.965 891.619 920.994 886.923 919.963C884.596 919.452 880.203 915.461 873.344 907.629C864.275 897.269 862.149 895.546 853.163 891.278C840.106 885.074 830.971 878.595 823.031 869.909C812.399 858.275 800.687 854.383 790.688 859.162Z" fill="#1F1E2E" stroke="#1F1E2E" stroke-width="2"/>
<path fill-rule="evenodd" clip-rule="evenodd" d="M589.334 50.5788C583.839 51.697 578.482 55.4638 573.574 61.6615C571.483 64.3016 567.729 67.7088 565.232 69.2343C546.776 80.503 528.112 96.8414 522.037 107.045C519.11 111.963 515.205 116.517 511.944 118.815C509.019 120.876 503.376 126.87 499.403 132.135C495.431 137.399 488.54 145.621 484.09 150.404C479.639 155.186 474.6 161.273 472.891 163.929C471.182 166.583 466.949 172.059 463.486 176.096C460.021 180.134 454.633 187.29 451.512 192.001C448.392 196.711 443.815 203.592 441.342 207.293C438.87 210.994 435.874 215.948 434.686 218.303C433.498 220.658 429.579 225.963 425.978 230.091C422.376 234.219 417.954 240.55 416.15 244.16C414.346 247.77 410.282 254.577 407.118 259.287C403.954 263.997 400.989 269.43 400.53 271.362C400.07 273.292 398.138 276.871 396.235 279.314C392.416 284.216 390.027 290.361 390.027 295.276C390.027 297.037 388.609 300.566 386.877 303.115C382.352 309.775 380.513 314.732 379.028 324.279C378.307 328.905 376.301 337.645 374.568 343.701C372.836 349.757 370.953 357.464 370.384 360.829C369.815 364.193 368.229 371.625 366.859 377.344C364.593 386.8 364.331 392.475 363.973 439.943C363.53 498.471 364.261 494.241 353.736 499.22C341.411 505.051 315.782 542.428 313.03 558.585C309.959 576.62 309.231 584.883 309.433 599.431C309.552 608.156 309.873 618.419 309.433 619.8C308.646 622.261 311.005 622.478 332.299 622.746C352.114 622.996 356.608 621.646 361.95 623.082C365.041 623.913 367.646 606.46 365.629 598.589C359.582 574.994 377.465 547.107 401.943 541.958C406.523 540.994 411.909 539.548 413.911 538.743C417.95 537.119 431.681 534.238 440.186 533.228C443.214 532.868 450.646 532.022 456.702 531.346C462.758 530.671 471.947 529.629 477.122 529.032C491.84 527.332 499.763 521.982 505.189 510.083C514.555 489.534 494.061 466.127 471.968 472.14C468.281 473.142 456.643 474.791 446.105 475.802C435.568 476.814 425.444 478.212 423.609 478.909C419.091 480.627 418.915 480.243 419.236 469.392C419.39 464.185 419.517 456.896 419.518 453.195C419.535 398.044 419.682 392.666 421.325 387.293C422.278 384.176 423.628 378.132 424.324 373.863C425.02 369.593 426.648 362.987 427.943 359.182C429.237 355.377 430.942 348.411 431.731 343.701C434.657 326.238 444.124 313.778 454.522 313.704C456.394 313.69 462.33 312.074 467.713 310.11C490.19 301.914 495.037 300.029 503.191 296.317C518.352 289.414 533.324 291.383 544.936 301.806C547.545 304.148 552.006 307.242 554.846 308.682C561.976 312.292 568.001 318.645 572.218 326.999C574.179 330.882 576.738 334.852 577.905 335.821C583 340.051 598.143 363.716 601.158 372.16C603.09 377.573 603.367 389.668 601.697 395.695C601.045 398.05 599.709 406.088 598.731 413.556C596.723 428.86 592.204 445.854 590.142 445.854C579.334 445.854 570.595 470.819 577.004 483.383C583.312 495.748 588.633 497.765 620.025 499.701C632.473 500.468 646.787 501.833 651.833 502.734C656.88 503.634 671.744 505.79 684.865 507.524C697.986 509.259 715.205 511.562 723.131 512.642C733.838 514.101 737.965 514.254 739.193 513.234C743.435 509.714 747.445 501.861 749.131 493.78C752.768 476.333 761.799 459.627 775.369 445.243C778.542 441.878 783.81 435.547 787.075 431.174C790.34 426.8 796.204 419.701 800.108 415.398C804.011 411.095 807.204 407.105 807.204 406.528C807.204 405.953 813.673 405.481 821.578 405.48C834.86 405.476 858.443 404.116 876.453 402.313C885.398 401.417 884.883 400.606 886.78 418.586C888.094 431.045 891.236 442.927 899.65 467.264C902.921 476.721 902.725 482.278 898.85 490.021C897.638 492.446 896.016 498.227 895.246 502.867C893.293 514.654 888.959 526.891 881.081 542.873C872.862 559.544 872.319 560.523 867.971 566.497C866.066 569.112 861.098 577.033 856.93 584.098C846.541 601.709 837.479 612.528 832.467 615.133C826.859 618.049 813.911 631.691 813.009 635.239L811.757 638.057L827.87 637.55C843.08 637.072 862.627 636.621 881.081 633.333C885.568 632.534 892.45 630.606 898.198 630.895C904.034 631.189 908.355 630.945 907.984 630.346C907.62 629.755 909.331 627.045 911.789 624.325C914.246 621.606 917.331 616.872 918.645 613.809C919.958 610.746 923.753 605.262 927.076 601.625C931.066 597.26 933.406 593.47 933.964 590.473C934.428 587.976 936.892 581.804 939.44 576.757C941.987 571.711 948.01 556.571 952.823 543.114C957.636 529.657 964.512 511.214 968.105 502.13C975.166 484.284 978.954 471.226 980.377 459.838C980.873 455.868 982.818 449.003 984.698 444.585C986.579 440.166 988.49 433.551 988.945 429.885C990.068 420.827 992.748 411.662 1002.88 382.244C1007.63 368.453 1011.52 355.515 1011.52 353.494C1011.54 348.294 1015.59 326.426 1019.32 311.333C1023.45 294.655 1025.32 276.121 1023.8 266.903C1022.76 260.599 1022.93 259.347 1025.33 255.28C1037.08 235.41 1017.42 210.348 990.101 210.355C976.548 210.358 978.781 209.578 941.454 227.354C933.538 231.123 926.591 234.208 926.015 234.208C925.438 234.208 921.18 236.975 916.55 240.358C909.48 245.524 899.331 250.112 894.972 250.112C894.369 250.112 890.862 252.27 887.178 254.909C883.493 257.546 878.396 260.057 875.853 260.487C857.339 263.614 812.314 303.021 787.018 338.234C783.382 343.295 779.364 348.236 770.295 358.799C765.809 364.027 759.478 372.704 756.226 378.083C750.702 387.227 743.153 396.818 726.154 416.292C722.285 420.725 719.12 424.953 719.12 425.688C719.12 426.423 716.696 430.467 713.734 434.674C710.773 438.88 707.686 443.924 706.875 445.883C704.254 452.208 652.186 450.529 643.403 443.835C643.14 443.634 644.373 439.088 646.143 433.732C649.783 422.721 652.298 409.408 654.948 387.132C655.949 378.721 657.423 367.16 658.225 361.44C659.478 352.51 660.334 333.698 660.538 310.67C660.64 299.08 658.376 266.47 657.353 264.817C656.045 262.7 654.418 249.254 653.575 233.596C653.169 226.055 651.515 215.846 649.265 206.982C645.631 192.664 645.621 192.53 646.924 175.09C648.137 158.832 648.047 156.834 645.657 147.261C644.241 141.589 642.631 132.544 642.078 127.161C641.162 118.245 639.339 112.268 632 94.1291C630.639 90.7648 629.077 85.0504 628.529 81.4291C625.457 61.1269 607.389 46.9062 589.334 50.5788ZM581.318 125.759C575.75 128.867 568.858 136.087 565.492 142.336C563.211 146.572 557.867 152.699 550.613 159.396C544.387 165.143 538.954 170.915 538.54 172.224C538.124 173.533 533.57 179.068 528.42 184.526C523.269 189.982 516.331 198.026 513.003 202.399C509.675 206.773 504.868 212.829 502.324 215.857C496.67 222.582 489.345 234.675 488.315 238.982C487.897 240.731 486.766 243.724 485.802 245.638C482.705 251.778 493.658 248.066 515.328 235.629C544.394 218.949 557.906 223.885 576.264 257.889C578.392 261.829 580.858 265.332 581.745 265.672C582.632 266.012 585.274 269.72 587.618 273.912C589.963 278.103 594.696 284.748 598.136 288.68L604.39 295.827L603.751 285.509C603.4 279.834 602.25 269.411 601.197 262.346C600.142 255.28 599.269 245.864 599.254 241.422C599.237 236.503 597.731 227.409 595.402 218.177C591.5 202.711 591.133 197.776 591.687 168.279C591.802 162.162 591.141 155.524 590.048 151.848C589.041 148.455 588.217 143.087 588.217 139.918C588.217 131.344 584.603 123.925 581.318 125.759ZM956.827 281.352C950.638 284.372 945.259 287.352 944.873 287.976C943.837 289.653 931.531 296.499 922.957 300.169C918.842 301.932 912.996 304.834 909.969 306.619C906.941 308.405 901.16 310.813 897.123 311.971C890.029 314.006 884.988 316.527 882.442 319.317C881.769 320.053 878.191 322.765 874.49 325.342C867.579 330.155 850.022 346.581 850.022 348.235C850.022 348.744 852.363 348.899 855.222 348.581C858.081 348.263 865.376 347.434 871.432 346.739C911.776 342.111 926.832 345.823 932.384 361.768C934.962 369.175 939.157 383.441 940.022 387.743C940.831 391.766 946.511 381.229 946.618 375.509C946.664 372.975 949.287 363.081 955.213 343.089C957.108 336.697 959.221 328.715 959.909 325.35C960.596 321.986 962.826 312.076 964.866 303.329C969.228 284.61 970.599 275.792 969.137 275.832C968.556 275.849 963.016 278.333 956.827 281.352ZM706.467 554.467C700.876 556.422 694.698 561.359 688.64 566.398C683.813 570.414 677.548 575.557 674.718 577.829C651.675 596.326 634.599 613.892 630.52 623.296C628.855 627.134 628.679 627.243 628.624 624.47C628.52 619.106 622.956 609.371 616.389 603.06C612.888 599.696 608.406 594.624 606.432 591.788C604.456 588.952 599.687 584.117 595.835 581.042C591.981 577.967 587.313 574.1 585.459 572.45C576.432 564.406 567.817 561.465 553.282 561.465H539.756L515.968 573.347C502.885 579.882 488.877 586.541 484.84 588.146C475.726 591.768 451.842 606.793 442.722 614.642C438.973 617.869 433.668 621.555 431.6 622.6C424.772 626.049 422.518 628.095 427.867 629.133C432.916 630.114 437.189 629.909 491.949 629.601L528.42 629.395L539.808 623.742C552.355 617.514 552.652 617.529 560.996 624.909C564.599 628.095 565.884 629.844 561.8 630.375C559.949 630.616 570.823 630.946 585.962 631.112C613.218 631.406 617.061 632.243 650 636.133C659.484 637.253 672.615 636.733 680.048 636.503L693.331 636.092L698.579 630.997C701.465 628.194 707.13 623.38 711.168 620.299L718.508 614.697L722.178 619.177C733.537 633.04 738.62 636.541 743.333 635.239C747.497 634.09 758.549 633.648 789.67 636.423C795.165 636.914 799.613 637.04 799.554 636.704C799.494 636.367 799.884 633.423 800.422 630.158C802.191 619.435 795.992 607.34 786.159 602.323C783.28 600.853 773.103 591.748 763.205 581.783C737.172 555.576 725.011 547.978 706.467 554.467ZM1245.18 879.547C1245.11 880.736 1246.85 887.224 1246.19 893.616C1245.53 900.008 1244.73 913.221 1244.41 922.977C1243.75 943.151 1244.27 941.967 1234.98 944.386C1226.51 946.591 1219.7 949.956 1214.32 954.582C1207.73 960.257 1174.53 971.913 1164.96 971.913C1158.6 971.913 1151.09 975.335 1147.54 979.852C1145.78 982.088 1142.55 983.615 1136.1 985.269C1114.13 990.9 1082.8 1005.01 1067.73 1016.06C1063.33 1019.29 1057 1022.84 1053.66 1023.96C1045.39 1026.72 1031.14 1034.67 1022.08 1041.57C1017.95 1044.72 1008.24 1051.06 1000.5 1055.66C981.548 1066.93 974.728 1073.12 961.866 1090.7C955.863 1098.9 946.548 1110.69 941.165 1116.89C935.782 1123.1 928.625 1132.18 925.261 1137.08C921.897 1141.99 916.789 1148.53 913.909 1151.63C908.367 1157.59 905.075 1165.85 905.075 1173.8C905.075 1176.27 900.114 1187.03 898.733 1191C897.353 1194.97 893.82 1206.21 890.881 1215.97C887.944 1225.72 884.542 1234.02 882.4 1239.07C868.311 1272.25 873.4 1321.73 889.765 1346.46C895.399 1354.98 898.772 1353.85 918.266 1336.91C942.497 1315.86 950.689 1316.23 940.667 1337.93C938.037 1343.62 934.203 1353.04 932.144 1358.88C930.085 1364.71 927.618 1371 926.662 1372.86C925.705 1374.72 923.202 1381.39 921.101 1387.67C919 1393.96 915.958 1401.39 914.343 1404.19C904.836 1420.66 903.312 1444.35 911.489 1448.58C917.649 1451.76 922.32 1449.93 934.039 1439.71C947.647 1427.84 965.941 1413.15 976.032 1405.98C980.405 1402.87 987.823 1397.25 992.516 1393.49C1005.87 1382.77 1007.74 1384.36 1005.92 1404.85C1002.21 1446.49 1003.7 1449.19 1027.59 1444.19C1033.88 1442.87 1045.64 1440.41 1053.72 1438.72C1073.06 1434.67 1129.09 1416.79 1144.58 1409.72C1148.81 1407.79 1152.66 1406.21 1153.15 1406.21C1154.81 1406.21 1172.21 1398.8 1175.98 1396.51C1178.04 1395.25 1182.2 1393.51 1185.23 1392.64C1188.26 1391.77 1191.84 1390.43 1193.18 1389.66C1194.53 1388.89 1198.93 1387.29 1202.97 1386.1C1207.01 1384.91 1214.44 1382.58 1219.49 1380.91C1224.53 1379.24 1231.58 1377.36 1235.14 1376.73C1238.7 1376.1 1249.71 1373.11 1259.6 1370.1C1269.5 1367.08 1279.53 1364.08 1281.88 1363.43C1284.24 1362.79 1289.34 1361.39 1293.23 1360.34C1299.53 1358.62 1309.04 1354.13 1325.79 1344.94C1344.5 1334.67 1355.18 1316.27 1359.11 1287.55C1359.7 1283.17 1361.08 1273.54 1362.17 1266.14C1363.25 1258.74 1364.62 1247.73 1365.21 1241.67C1365.8 1235.62 1366.52 1228.46 1366.82 1225.77C1369.52 1201.29 1370.24 1191.13 1371.19 1163.99C1371.78 1146.83 1372.86 1124.59 1373.56 1114.58C1374.47 1101.77 1374.47 1093.97 1373.55 1088.28C1372.84 1083.83 1372.04 1071.9 1371.78 1061.77C1371.52 1051.65 1370.69 1040.91 1369.94 1037.92C1368.26 1031.21 1368.09 1030.37 1365.65 1015.96C1363.07 1000.8 1360.77 992.793 1355.95 982.261C1353.78 977.521 1351.62 971.203 1351.14 968.218C1350.66 965.235 1347.77 957.55 1344.71 951.144C1341.66 944.735 1338.52 938.138 1337.74 936.48C1332.9 926.194 1304.96 902.969 1289.22 896.141C1285.52 894.536 1280.29 892.242 1277.6 891.044C1274.91 889.847 1269.8 887.736 1266.26 886.355C1262.71 884.975 1257.07 882.456 1253.72 880.758C1248.21 877.97 1245.28 877.594 1245.18 879.547ZM1273.32 992.159C1265.58 994.441 1256.95 996.655 1254.14 997.079C1251 997.555 1247.94 999.028 1246.19 1000.91C1241.75 1005.67 1225.94 1012.7 1203.79 1019.76L1194.83 1022.62L1195.52 1029.99C1195.9 1034.05 1196.77 1050.58 1197.45 1066.73C1198.13 1082.87 1199.59 1101.59 1200.68 1108.32C1202.48 1119.36 1203.91 1166.33 1204.08 1219.65C1204.12 1231.85 1201.93 1254.23 1200.11 1260.19C1199.09 1263.55 1200.49 1321.56 1201.62 1322.7C1201.82 1322.9 1205.08 1321.65 1208.86 1319.92C1212.64 1318.19 1217.81 1316.45 1220.36 1316.05C1222.91 1315.65 1229.67 1312.97 1235.39 1310.08C1245.5 1304.99 1260.48 1298.29 1272.48 1293.51C1289.5 1286.74 1295.16 1282.96 1296.58 1277.47C1297.32 1274.6 1298.44 1270.6 1299.07 1268.59C1299.7 1266.57 1301.28 1259.13 1302.58 1252.07C1303.88 1245 1305.53 1237.67 1306.26 1235.78C1313.89 1215.82 1321.74 1090.78 1316.18 1077.74C1315.28 1075.62 1314.22 1065.25 1313.67 1053.25L1312.73 1032.43L1308.32 1024.41C1305.75 1019.72 1303.62 1013.88 1303.2 1010.36C1300.5 987.44 1296.85 985.221 1273.32 992.159ZM1127.73 1052.66C1121.34 1055.57 1112.82 1059.71 1109.38 1061.83C1100.51 1067.29 1085.92 1074.16 1078.8 1075.9C1067.48 1078.67 1049.15 1090.46 1037.2 1103.43C1033.5 1107.45 1027 1113.16 1023.13 1115.66C1008.69 1125 974.061 1165.8 969.915 1178.67C969.1 1181.19 966.311 1187.15 965.021 1187.84C961.941 1189.49 959.324 1194.71 955.846 1206.19C954.298 1211.3 951.93 1218.02 950.458 1221.39C947.079 1229.12 936.126 1262.23 935.048 1267.97C932.337 1282.43 948.689 1275.27 963.186 1257.58C966.301 1253.77 993.904 1236.17 996.218 1236.17C1003.65 1236.17 1003.42 1256.35 1000.07 1275.93C999.036 1281.99 997.896 1291.62 997.539 1297.34C997.181 1303.05 995.553 1314.07 993.92 1321.8C990.326 1338.84 992.956 1340.19 1001.72 1330.98C1020.58 1311.16 1051.86 1293.65 1058 1299.78C1062.08 1303.87 1060.94 1320.89 1055.55 1369.52C1053.27 1390.1 1050.1 1391.57 1062.55 1387.98C1067.78 1386.46 1074.01 1384.82 1076.38 1384.31C1078.76 1383.81 1086.19 1380.76 1092.9 1377.54C1099.61 1374.31 1111.98 1368.68 1120.39 1365.01C1136.04 1358.19 1141.85 1355.08 1140.82 1354.06C1140.5 1353.74 1141.12 1350.9 1142.2 1347.74C1143.84 1342.93 1144.19 1334.78 1144.33 1297.95C1144.45 1265.23 1144.99 1250.57 1146.4 1240.95C1148.59 1226.02 1146.57 1146.36 1144.25 1125.45C1141.33 1099.18 1140.07 1094.62 1139.97 1076.51C1139.81 1048.5 1144.57 1044.98 1127.73 1052.66Z" fill="#392E1F" stroke="#392E1F" stroke-width="2"/>
</svg>
